# xmcd
#
# Track frame offsets:
#	150
#	22950
#	43275
#	67425
#	89028
#	110928
#	135978
#	160505
#	180755
#	202505
#	222608
#	245708
#
# Disc length: 3556
#
# Revision: 1
# Processed by: cddbd v1.5.1PL0 Copyright (c) Steve Scherf et al.
# Submitted via: CDex 1.51
# Normalized: r0:DSETVAR1
#
DISCID=ad0de20c
DTITLE=Various Artist - Viva la Salsa!
DYEAR=1994
DGENRE=Salsa
TTITLE0=Marc Anthony - Hasta que te conoci
TTITLE1=Frankie Ruiz - Mi libertad
TTITLE2=MP All Stars - Que guille
TTITLE3=Gilberto Santa Rosa - Tengo una muneca
TTITLE4=Oscar D'Leon - La Carta
TTITLE5=Tito Allen - Junto a Ti
TTITLE6=Tito Rojas - Porque este amor
TTITLE7=Pa'Tanta Gente - No hay cama
TTITLE8=Galy Galiano - La cita
TTITLE9=Guayacan - Torero
TTITLE10=Grupo Niche - Cali pachanguero
TTITLE11=Edgar Joel - Hasta el sol de hoy
EXTD=YEAR: 1994
EXTT0=
EXTT1=
EXTT2=
EXTT3=
EXTT4=
EXTT5=
EXTT6=
EXTT7=
EXTT8=
EXTT9=
EXTT10=
EXTT11=
PLAYORDER=
